<?xml version="1.0" encoding="UTF-8" standalone="no"?>
<!-- Created with Inkscape (http://www.inkscape.org/) -->

<svg
   xmlns:dc="http://purl.org/dc/elements/1.1/"
   xmlns:cc="http://creativecommons.org/ns#"
   xmlns:rdf="http://www.w3.org/1999/02/22-rdf-syntax-ns#"
   xmlns:svg="http://www.w3.org/2000/svg"
   xmlns="http://www.w3.org/2000/svg"
   xmlns:sodipodi="http://sodipodi.sourceforge.net/DTD/sodipodi-0.dtd"
   xmlns:inkscape="http://www.inkscape.org/namespaces/inkscape"
   width="72.759079mm"
   height="78.276939mm"
   viewBox="0 0 72.759079 78.276939"
   version="1.1"
   id="svg8"
   inkscape:version="0.92.3 (2405546, 2018-03-11)"
   sodipodi:docname="logo.svg">
  <defs
     id="defs2">
    <clipPath
       clipPathUnits="userSpaceOnUse"
       id="clipPath4790">
      <rect
         style="fill:none;stroke-width:0.26292446"
         id="rect4792"
         width="72.193443"
         height="29.860111"
         x="14.363095"
         y="72.860107"
         inkscape:label="Mask" />
    </clipPath>
  </defs>
  <sodipodi:namedview
     id="base"
     pagecolor="#ffffff"
     bordercolor="#666666"
     borderopacity="1.0"
     inkscape:pageopacity="0.0"
     inkscape:pageshadow="2"
     inkscape:zoom="0.98994949"
     inkscape:cx="121.32368"
     inkscape:cy="32.41372"
     inkscape:document-units="mm"
     inkscape:current-layer="layer1"
     showgrid="false"
     showguides="false"
     inkscape:window-width="1853"
     inkscape:window-height="1025"
     inkscape:window-x="67"
     inkscape:window-y="27"
     inkscape:window-maximized="1"
     fit-margin-top="0"
     fit-margin-left="0"
     fit-margin-right="0"
     fit-margin-bottom="0" />
  <metadata
     id="metadata5">
    <rdf:RDF>
      <cc:Work
         rdf:about="">
        <dc:format>image/svg+xml</dc:format>
        <dc:type
           rdf:resource="http://purl.org/dc/dcmitype/StillImage" />
        <dc:title></dc:title>
      </cc:Work>
    </rdf:RDF>
  </metadata>
  <g
     inkscape:label="Logo"
     inkscape:groupmode="layer"
     id="layer1"
     transform="translate(-0.13102787,-0.28543632)">
    <g
       aria-label="tHIn"
       transform="scale(1.0379638,0.96342473)"
       style="font-style:normal;font-variant:normal;font-weight:normal;font-stretch:normal;font-size:57.85750961px;line-height:1.25;font-family:Steelfish;-inkscape-font-specification:Steelfish;letter-spacing:0px;word-spacing:0px;fill:#000000;fill-opacity:1;stroke:none;stroke-width:1.44643772"
       id="thin"
       inkscape:label="Thin">
      <path
         d="m 13.842235,47.314493 q 0,0.790223 -0.395111,1.241778 -0.395111,0.451556 -0.959556,0.733778 -0.564444,0.282222 -1.241777,0.338667 -0.677334,0.112888 -1.241778,0.112888 -4.2333332,0 -6.2653332,-2.427111 Q 1.7631243,44.887382 1.7631243,40.597605 V 19.600272 Q 1.085791,19.430939 0.57779103,18.866494 0.12623549,18.245605 0.12623549,17.455383 v -3.951111 q 0,-0.733778 0.45155554,-1.298222 Q 1.085791,11.641606 1.7631243,11.415828 V 2.8927169 q 0,-0.903111 0.6208889,-1.5239999 0.6208889,-0.62088889 1.524,-0.62088889 H 8.480013 q 0.9031111,0 1.524,0.62088889 0.620889,0.6208889 0.620889,1.5239999 v 8.4666661 h 0.959555 q 0.903111,0 1.524,0.620889 0.620889,0.620889 0.620889,1.524 v 3.951111 q 0,0.959556 -0.620889,1.580445 -0.620889,0.620888 -1.524,0.620888 H 10.624902 V 40.54116 q 0,0.959556 0.338666,0.959556 0.282223,0 0.395112,0 0.169333,-0.05644 0.395111,-0.05644 0.903111,0 1.467555,0.620889 0.620889,0.564445 0.620889,1.524 z M 11.697346,43.58916 q -0.169333,0.05645 -0.395111,0.05645 -0.169333,0 -0.338667,0 -2.483555,0 -2.483555,-3.104445 V 17.455383 h 3.104444 V 13.504272 H 8.480013 V 2.8927169 H 3.9080132 V 13.504272 H 2.3275688 v 3.951111 h 1.5804444 v 23.142222 q 0,3.273777 1.4675555,5.136444 1.5239999,1.806222 4.6284443,1.806222 1.072444,0 1.693333,-0.225778 z"
         style="font-size:56.44444275px"
         id="path4852"
         inkscape:connector-curvature="0" />
      <path
         d="m 26.391422,49.233604 q -0.790222,0 -1.411111,-0.451555 -0.564445,-0.451556 -0.733778,-1.241778 -0.225778,0.790222 -0.790222,1.241778 -0.564445,0.451555 -1.298222,0.451555 h -5.023556 q -0.903111,0 -1.524,-0.620888 -0.620889,-0.620889 -0.620889,-1.524 V 2.4976058 q 0,-0.9595555 0.620889,-1.58044436 0.620889,-0.62088887 1.524,-0.62088887 h 5.023556 q 0.733777,0 1.298222,0.50799998 0.564444,0.45155555 0.790222,1.18533335 0.169333,-0.7337778 0.733778,-1.18533335 0.620889,-0.50799998 1.411111,-0.50799998 h 4.967111 q 0.903111,0 1.524,0.62088887 0.620889,0.62088886 0.620889,1.58044436 V 47.088716 q 0,0.903111 -0.620889,1.524 -0.620889,0.620888 -1.524,0.620888 z m 4.967111,-2.144888 V 2.4976058 H 26.391422 V 21.85805 H 22.158089 V 2.4976058 H 17.134533 V 47.088716 h 5.023556 V 26.881605 h 4.233333 v 20.207111 z"
         style="font-size:56.44444275px"
         id="path4854"
         inkscape:connector-curvature="0" />
      <path
         d="m 38.303845,49.233604 q -0.903111,0 -1.524,-0.620888 -0.620889,-0.620889 -0.620889,-1.524 V 2.4976058 q 0,-0.9595555 0.620889,-1.58044436 0.620889,-0.62088887 1.524,-0.62088887 h 5.023556 q 0.903111,0 1.524,0.62088887 0.620888,0.62088886 0.620888,1.58044436 V 47.088716 q 0,0.903111 -0.620888,1.524 -0.620889,0.620888 -1.524,0.620888 z m 5.023556,-2.144888 V 2.4976058 H 38.303845 V 47.088716 Z"
         style="font-size:56.44444275px"
         id="path4856"
         inkscape:connector-curvature="0" />
      <path
         d="m 61.627043,49.233604 q -1.503892,0 -2.291645,-1.28905 -0.787753,1.28905 -2.363258,1.28905 h -5.729112 q -1.145822,0 -1.933575,-0.787752 -0.787752,-0.787753 -0.787752,-1.933575 V 3.902011 q 0,-1.1458222 0.787752,-1.933575 0.787753,-0.7877528 1.933575,-0.7877528 h 4.869745 q 0.644525,0 1.432278,0.5012972 2.076803,-1.21743615 4.440061,-1.21743615 8.163984,0 8.163984,10.59885575 v 35.448877 q 0,1.145822 -0.787753,1.933575 -0.787753,0.787752 -1.933575,0.787752 z m 5.800725,-2.721327 V 11.0634 q 0,-7.805914 -5.442656,-7.805914 -3.652308,0 -5.657497,3.4374668 0,-1.5038917 -0.214842,-2.7929418 H 51.243028 V 46.512277 H 56.97214 V 10.562103 q 0.429683,-0.9309806 1.145822,-1.2890501 0.716139,-0.4296833 1.503892,-0.4296833 2.005189,0 2.005189,2.5781004 v 35.090807 z"
         style="font-size:71.6138916px"
         id="path4858"
         inkscape:connector-curvature="0" />
    </g>
    <g
       aria-label="music"
       transform="translate(-13.666437,-24.135796)"
       clip-path="url(#clipPath4790)"
       style="font-style:normal;font-weight:normal;font-size:10.58333302px;line-height:1.25;font-family:sans-serif;letter-spacing:0px;word-spacing:0px;fill:#000000;fill-opacity:1;stroke:none;stroke-width:0.26458332"
       id="music"
       inkscape:label="Music">
      <path
         d="m 28.820432,102.30447 q -0.7874,0 -1.312334,-0.61243 -0.262466,0.26247 -0.612422,0.43745 -0.306211,0.17498 -0.699911,0.17498 h -3.455811 q -0.7874,0 -1.312334,-0.61243 -0.262466,0.26247 -0.612422,0.43745 -0.306211,0.17498 -0.699911,0.17498 h -3.499556 q -0.699911,0 -1.1811,-0.48119 -0.481189,-0.48119 -0.481189,-1.1811 V 74.614232 q 0,-0.699911 0.481189,-1.1811 0.481189,-0.481189 1.1811,-0.481189 h 2.974622 q 0.393701,0 0.874889,0.306211 1.137356,-0.743655 2.537178,-0.743655 1.837267,0 3.018367,0.918633 1.356078,-0.918633 3.1496,-0.918633 4.811889,0 4.811889,6.561667 v 21.566014 q 0,0.69991 -0.481189,1.1811 -0.481189,0.48119 -1.1811,0.48119 z m 3.499555,-1.66229 V 79.076166 q 0,-4.855634 -3.1496,-4.855634 -1.137355,0 -2.012244,0.524933 -0.874889,0.524934 -1.399823,1.399823 -0.656166,-1.924756 -2.7559,-1.924756 -2.012244,0 -3.280833,2.055989 0,-0.874889 -0.131234,-1.662289 h -2.974622 v 26.027948 h 3.499556 V 78.682466 q 0.262467,-0.568678 0.656167,-0.787401 0.3937,-0.262466 0.7874,-0.262466 1.1811,0 1.1811,1.487311 v 21.52227 h 3.455811 V 78.682466 q 0.568678,-1.049867 1.487311,-1.049867 1.137356,0 1.137356,1.487311 v 21.52227 z"
         style="font-style:normal;font-variant:normal;font-weight:normal;font-stretch:normal;font-size:43.7444458px;font-family:Steelfish;-inkscape-font-specification:Steelfish;stroke-width:0.26458332"
         id="path4861"
         inkscape:connector-curvature="0" />
      <path
         d="m 44.241033,102.30447 q -0.481189,0 -0.962378,-0.34996 -1.137355,0.61242 -2.580922,0.61242 -2.405945,0 -3.674534,-1.53105 -1.268588,-1.574803 -1.268588,-4.593169 V 74.614232 q 0,-0.699911 0.481188,-1.1811 0.481189,-0.481189 1.224845,-0.481189 h 3.455811 q 0.874889,0 1.399822,0.743656 0.524934,-0.743656 1.399823,-0.743656 h 3.499555 q 0.699911,0 1.1811,0.481189 0.524934,0.481189 0.524934,1.1811 v 26.027948 q 0,0.69991 -0.524934,1.1811 -0.481189,0.48119 -1.1811,0.48119 z m 2.974622,-1.66229 V 74.614232 H 43.7161 v 21.828479 q -0.524934,1.006122 -1.5748,1.006122 -1.224845,0 -1.224845,-1.5748 V 74.614232 h -3.455811 v 21.828479 q 0,2.143477 0.7874,3.280833 0.831144,1.137356 2.449689,1.137356 2.230967,0 3.412067,-1.881012 0,0.874889 0.131233,1.662292 z"
         style="font-style:normal;font-variant:normal;font-weight:normal;font-stretch:normal;font-size:43.7444458px;font-family:Steelfish;-inkscape-font-specification:Steelfish;stroke-width:0.26458332"
         id="path4863"
         inkscape:connector-curvature="0" />
      <path
         d="m 63.34642,96.223988 q 0,3.412067 -1.618545,4.943122 -1.618544,1.53106 -4.855633,1.53106 -3.280834,0 -4.855634,-1.5748 -1.5748,-1.574804 -1.5748,-5.07436 v -4.111977 q 0,-0.699912 0.481189,-1.1811 0.524933,-0.524934 1.224845,-0.524934 h 2.580922 Q 53.372686,88.787432 52.497797,87.737566 51.666653,86.687699 51.185464,85.81281 50.748019,84.894177 50.573042,83.975543 50.441808,83.05691 50.441808,81.832066 v -2.493434 q 0,-3.762022 1.662289,-5.293078 1.662289,-1.531055 4.899378,-1.531055 1.793522,0 2.974622,0.437444 1.224845,0.3937 1.924756,1.268589 0.743656,0.831145 1.006122,2.099733 0.306211,1.268589 0.306211,3.018367 v 4.111978 q 0,0.699911 -0.481188,1.1811 -0.481189,0.481189 -1.181101,0.481189 h -2.318455 q 1.312333,1.399822 2.099733,2.3622 0.831145,0.918633 1.268589,1.837267 0.437445,0.874889 0.568678,1.881011 0.174978,1.006122 0.174978,2.449689 z m -1.662289,-2.580922 q 0,-1.618545 -0.306211,-2.712156 -0.262467,-1.093611 -1.137356,-2.230966 -0.3937,-0.524934 -0.962378,-1.093612 -0.524933,-0.568677 -1.093611,-1.137355 -0.524933,-0.568678 -1.049867,-1.093611 -0.481188,-0.568678 -0.874888,-1.093611 -0.481189,-0.612423 -0.568678,-1.049867 -0.08749,-0.437445 -0.08749,-1.049867 v -2.843389 q 0,-1.618544 1.312333,-1.618544 0.656167,0 1.049867,0.437444 0.3937,0.3937 0.3937,1.1811 v 4.111978 h 3.193344 v -4.111978 q 0,-2.624667 -0.962377,-3.849511 -0.962378,-1.268589 -3.630789,-1.268589 -2.3622,0 -3.587045,1.137356 -1.224844,1.093611 -1.224844,3.980744 v 2.493434 q 0,1.268589 0.218722,2.318455 0.262467,1.006122 0.918633,1.881011 0.349956,0.481189 0.874889,1.093612 0.568678,0.612422 1.137356,1.268588 0.612422,0.656167 1.137355,1.268589 0.568678,0.612423 0.962378,1.093612 0.481189,0.656166 0.612422,1.093611 0.174978,0.437444 0.174978,1.312333 v 2.799645 q 0,1.618544 -1.356078,1.618544 -1.487311,0 -1.487311,-1.618544 v -4.024489 h -3.193344 v 4.111977 q 0,2.668412 1.137355,3.805767 1.137356,1.137353 3.587045,1.137353 2.405944,0 3.587044,-1.093608 1.224845,-1.093611 1.224845,-3.674534 z"
         style="font-style:normal;font-variant:normal;font-weight:normal;font-stretch:normal;font-size:43.7444458px;font-family:Steelfish;-inkscape-font-specification:Steelfish;stroke-width:0.26458332"
         id="path4865"
         inkscape:connector-curvature="0" />
      <path
         d="m 66.770107,102.30447 q -0.699911,0 -1.1811,-0.48119 -0.481189,-0.48119 -0.481189,-1.1811 V 74.614232 q 0,-0.612422 0.349956,-1.049867 0.349955,-0.437444 0.962377,-0.568677 -0.612422,-0.08749 -0.962377,-0.568678 -0.349956,-0.481189 -0.349956,-1.093611 v -5.249334 q 0,-0.743655 0.481189,-1.224844 0.481189,-0.481189 1.1811,-0.481189 h 3.499556 q 0.699911,0 1.1811,0.481189 0.481189,0.481189 0.481189,1.224844 v 5.249334 q 0,0.612422 -0.3937,1.093611 -0.349956,0.481189 -0.962378,0.568678 0.612422,0.131233 0.962378,0.568677 0.3937,0.437445 0.3937,1.049867 v 26.027948 q 0,0.69991 -0.481189,1.1811 -0.481189,0.48119 -1.1811,0.48119 z m 3.499556,-1.66229 V 74.614232 h -3.499556 v 26.027948 z m 0,-29.308781 v -5.249334 h -3.499556 v 5.249334 z"
         style="font-style:normal;font-variant:normal;font-weight:normal;font-stretch:normal;font-size:43.7444458px;font-family:Steelfish;-inkscape-font-specification:Steelfish;stroke-width:0.26458332"
         id="path4867"
         inkscape:connector-curvature="0" />
      <path
         d="m 81.690379,86.862677 q -0.699911,0 -1.1811,-0.481189 v 2.449689 q 0.524933,-0.524933 1.1811,-0.524933 h 3.280833 q 0.699912,0 1.1811,0.524933 0.481189,0.481189 0.481189,1.1811 v 5.774267 q 0,3.1496 -1.5748,5.030616 -1.531055,1.88101 -4.811889,1.88101 -3.412067,0 -4.986867,-1.92476 Q 73.72889,98.848655 73.72889,95.699055 V 79.601099 q 0,-3.1496 1.5748,-5.1181 1.5748,-1.9685 4.943122,-1.9685 3.324578,0 4.811889,1.9685 1.487311,1.924755 1.487311,5.074355 v 5.599289 q 0,0.699912 -0.481188,1.224845 -0.481189,0.481189 -1.1811,0.481189 z m 0,8.836378 q 0,1.749778 -1.443567,1.749778 -1.443566,0 -1.443566,-1.749778 V 79.51361 q 0,-1.706033 1.443566,-1.706033 1.443567,0 1.443567,1.662289 v 5.686777 h 3.193345 v -5.599289 q 0,-2.405944 -1.093612,-3.849511 -1.049866,-1.487311 -3.5433,-1.487311 -2.493433,0 -3.674533,1.487311 -1.137356,1.487311 -1.137356,3.893256 v 16.097956 q 0,2.405944 1.137356,3.849511 1.1811,1.443564 3.674533,1.443564 2.493434,0 3.587045,-1.399819 1.137355,-1.443567 1.137355,-3.805767 v -5.774267 h -3.280833 z"
         style="font-style:normal;font-variant:normal;font-weight:normal;font-stretch:normal;font-size:43.7444458px;font-family:Steelfish;-inkscape-font-specification:Steelfish;stroke-width:0.26458332"
         id="path4869"
         inkscape:connector-curvature="0" />
    </g>
    <rect
       style="fill:#000000;stroke-width:0.28186947"
       id="rect4798"
       width="72.193451"
       height="2.4054244"
       x="0.69665784"
       y="46.848053"
       inkscape:label="Bar" />
  </g>
</svg>
