<?xml version="1.0" encoding="utf-8"?>
<!-- Generator: Adobe Illustrator 19.2.1, SVG Export Plug-In . SVG Version: 6.00 Build 0)  -->
<svg version="1.1" id="Artwork" xmlns="http://www.w3.org/2000/svg" xmlns:xlink="http://www.w3.org/1999/xlink" x="0px" y="0px"
	 width="78.0299988px" height="16px" viewBox="0 0 78.0299988 16" enable-background="new 0 0 78.0299988 16" xml:space="preserve">
<g>
	<g>
		<g>
			<g>
				<path fill="#A6A6A6" d="M73.454216,0H3.5755043C3.4379919,0,3.3021257,0,3.1649806,0.0007324
					C3.0501742,0.0014648,2.9362831,0.0036623,2.820375,0.005493C2.5708044,0.0117188,2.3181181,0.0270997,2.0689118,0.0717772
					C1.8178756,0.1157228,1.5845994,0.1907959,1.3560818,0.3068846C1.1315956,0.421875,0.9265125,0.57129,0.7490881,0.7489012
					C0.5696431,0.9265125,0.4209631,1.1323237,0.3072556,1.35681C0.190616,1.58496,0.1166412,1.819335,0.0728791,2.070555
					C0.0276518,2.3188462,0.0120882,2.57007,0.0056795,2.82129C0.0022002,2.93628,0.0018342,3.0516374,0,3.1666274
					C0,3.30249,0,3.43872,0,3.5760489v7.8482513c0,0.1384497,0,0.2739372,0,0.4101744
					c0.0018342,0.1164379,0.0022002,0.2292376,0.0056795,0.3457127c0.0064087,0.2512131,0.0219724,0.5024252,0.0671996,0.7507124
					c0.0437621,0.2512131,0.1177369,0.4867125,0.2343765,0.7141132c0.1137075,0.2233868,0.2623875,0.429225,0.4418325,0.6053619
					c0.1774244,0.1790628,0.3825075,0.328125,0.6069937,0.4420128c0.2285175,0.1171875,0.4617938,0.1911745,0.7128299,0.2365503
					c0.2492063,0.0446997,0.5018926,0.0593624,0.7514632,0.0662994c0.1159081,0.0025501,0.2297993,0.0040131,0.3446057,0.0040131
					C3.3021257,15,3.4379919,15,3.5755043,15H73.454216c0.1347733,0,0.2717285,0,0.4065018-0.0007496
					c0.1142654,0,0.2314529-0.0014629,0.3457108-0.0040131c0.2512131-0.006937,0.5031738-0.0215998,0.75-0.0662994
					c0.2512131-0.0453758,0.4848404-0.1193628,0.7155762-0.2365503c0.2240982-0.1138878,0.429184-0.2629499,0.6064529-0.4420128
					c0.178688-0.176137,0.3273697-0.3819752,0.4431-0.6053619c0.114975-0.2274008,0.1897125-0.4629002,0.2321625-0.7141132
					c0.0461578-0.2482872,0.0607834-0.4994993,0.0695953-0.7507124c0.0014648-0.1164751,0.0014648-0.2292747,0.0014648-0.3457127
					c0.0029221-0.1362371,0.0029221-0.2717247,0.0029221-0.4101744V3.5760489c0-0.1373289,0-0.2735589-0.0029221-0.4094214
					c0-0.11499,0-0.2303474-0.0014648-0.3453374c-0.008812-0.25122-0.0234375-0.5024438-0.0695953-0.750735
					c-0.04245-0.25122-0.1171875-0.485595-0.2321625-0.713745c-0.1157303-0.2244862-0.2644119-0.4302975-0.4431-0.6079087
					c-0.177269-0.1776112-0.3823547-0.3270262-0.6064529-0.4420166c-0.2307358-0.1160887-0.4643631-0.1911619-0.7155762-0.2351074
					c-0.2468262-0.0446775-0.4987869-0.0600585-0.75-0.0662842c-0.1142578-0.0018308-0.2314453-0.0040282-0.3457108-0.0047606
					C73.7259445,0,73.5889893,0,73.454216,0L73.454216,0z"/>
				<path d="M3.1668105,14.671875c-0.114255,0-0.2257686-0.0014629-0.3391087-0.0040121
					c-0.209655-0.005888-0.4583137-0.0175877-0.7009275-0.0611629c-0.2288812-0.0414-0.432315-0.1087875-0.6212775-0.2054625
					c-0.1955588-0.099225-0.37134-0.2273998-0.5238638-0.3812246c-0.1552762-0.1523256-0.2829-0.3273754-0.3826912-0.5236883
					c-0.09723-0.1892996-0.1636988-0.3925495-0.2036169-0.6214495c-0.0457731-0.2523003-0.0574919-0.5083122-0.0624375-0.703125
					c-0.0023782-0.0790873-0.0054907-0.3424129-0.0054907-0.3424129V3.1666274c0,0,0.0032963-0.2592788,0.0054907-0.3354523
					c0.0049456-0.19647,0.0166643-0.4522688,0.0620731-0.7020264C0.4350631,1.898985,0.501525,1.6959225,0.5987581,1.5058613
					C0.6983625,1.3092037,0.8261768,1.1332388,0.9794356,0.98163C1.1345243,0.8263537,1.3110368,0.697815,1.505313,0.5982038
					c0.1926264-0.0977775,0.3956926-0.16461,0.619995-0.2039775C2.3778105,0.348999,2.6337931,0.3376466,2.8286169,0.3327026
					L3.1669943,0.328125h70.6918869l0.3424149,0.0047606c0.1922607,0.004761,0.4482346,0.0161134,0.6968994,0.0609731
					C75.1241302,0.43341,75.3285065,0.50061,75.5247803,0.5993025c0.1922607,0.0985125,0.3684006,0.2270513,0.5218506,0.3808613
					c0.15345,0.1523437,0.2819595,0.3292237,0.3837738,0.5266125c0.0966797,0.1917113,0.1625977,0.3947738,0.2006989,0.6183451
					c0.0435791,0.2365725,0.0571136,0.4795537,0.0651779,0.7077036c0.0010834,0.1062,0.0010834,0.2202752,0.0010834,0.3338025
					c0.0029678,0.140625,0.0029678,0.2744739,0.0029678,0.4094214v7.8482513c0,0.1362371,0,0.2691746-0.0029678,0.4032001
					c0,0.1219492,0,0.2336626-0.0014572,0.3486376c-0.0076904,0.2208366-0.021225,0.4636497-0.0640869,0.6950617
					c-0.0388184,0.2299881-0.1047363,0.433238-0.202507,0.6262503c-0.101059,0.1948128-0.2296066,0.3709497-0.3808441,0.5196381
					c-0.1549149,0.1567497-0.3307114,0.2845497-0.5247803,0.3834372c-0.1944733,0.0988503-0.3929596,0.1644001-0.6254959,0.2061749
					c-0.2402267,0.0435753-0.4888916,0.055275-0.7009506,0.0611629c-0.1098404,0.0025492-0.2248535,0.0040121-0.336525,0.0040121
					l-0.4065018,0.0007496L3.1668105,14.671875z"/>
			</g>
		</g>
	</g>
	<g id="XMLID_5_">
		<g id="XMLID_25_">
			<g id="XMLID_26_">
				<g id="XMLID_1_">
					<path id="XMLID_2_" fill="#FFFFFF" d="M11.5474501,8.9274588h-2.828125l-0.684082,1.96875H6.8526263l2.6791987-7.4199219
						h1.2392578l2.6791992,7.4199219H12.226161L11.5474501,8.9274588z M9.0122938,7.9606619h2.2421875l-1.074707-3.1367188
						h-0.0874023L9.0122938,7.9606619z"/>
					<path id="XMLID_6_" fill="#FFFFFF" d="M19.991787,8.0934744c0,1.7792969-0.8999023,2.8955078-2.3139648,2.8955078
						c-0.796875,0-1.4296875-0.3505859-1.7226572-0.9414062h-0.0874023v2.7099609h-1.1054688V5.2965994h1.0644531v0.9257812
						h0.0820312c0.3393564-0.6386719,0.9975595-1.0185547,1.75879-1.0185547
						C19.0918846,5.203826,19.991787,6.3141775,19.991787,8.0934744z M18.8555565,8.0934744
						c0-1.1826172-0.5605469-1.8974609-1.496582-1.8974609c-0.9306641,0-1.5117197,0.7304688-1.5117197,1.9033203
						c0,1.1669922,0.5810556,1.8964844,1.5068369,1.8964844C18.2950096,9.9958181,18.8555565,9.2809744,18.8555565,8.0934744z"/>
					<path id="XMLID_11_" fill="#FFFFFF" d="M26.6988182,8.0934744c0,1.7792969-0.8999023,2.8955078-2.3139648,2.8955078
						c-0.796875,0-1.4296875-0.3505859-1.7226562-0.9414062h-0.0874023v2.7099609H21.469326V5.2965994h1.0644531v0.9257812
						h0.0820312c0.3393555-0.6386719,0.9975586-1.0185547,1.7587891-1.0185547
						C25.7989159,5.203826,26.6988182,6.3141775,26.6988182,8.0934744z M25.5625877,8.0934744
						c0-1.1826172-0.5605469-1.8974609-1.496582-1.8974609c-0.9306641,0-1.5117188,0.7304688-1.5117188,1.9033203
						c0,1.1669922,0.5810547,1.8964844,1.5068359,1.8964844C25.0020409,9.9958181,25.5625877,9.2809744,25.5625877,8.0934744z"/>
					<path id="XMLID_15_" fill="#FFFFFF" d="M28.2281151,3.1110528h1.1054688v7.7851562h-1.1054688V3.1110528z"/>
					<path id="XMLID_17_" fill="#FFFFFF" d="M35.8799706,9.38449c-0.2519531,1.0019531-1.1464844,1.6191406-2.4272537,1.6191406
						c-1.6039963,0-2.5864182-1.0996094-2.5864182-2.8886719c0-1.7900391,1.0029297-2.9267578,2.581543-2.9267578
						c1.5581055,0,2.4990234,1.0644531,2.4990234,2.8232422v0.3857422h-3.9541016v0.0615234
						c0.0356445,0.9824219,0.6064453,1.6044922,1.4912109,1.6044922c0.668457,0,1.1259766-0.2412109,1.331543-0.6787109H35.8799706z
						 M31.9927635,7.5798025h2.828125c-0.0258789-0.8798828-0.5605469-1.4501953-1.378418-1.4501953
						C32.6250877,6.1296072,32.054287,6.7048025,31.9927635,7.5798025z"/>
					<path id="XMLID_21_" fill="#FFFFFF" d="M47.0254784,10.8962088V5.5378103H46.953701l-2.175293,5.1425781h-0.8740234
						l-2.175293-5.1425781h-0.0717773v5.3583984h-1.0698242V3.4762871h1.347168l2.3603516,5.6357422h0.0874023l2.3657227-5.6357422
						h1.347168v7.4199219H47.0254784z"/>
					<path id="XMLID_28_" fill="#FFFFFF" d="M54.6958885,10.8962088h-1.0644531v-0.8896484h-0.0878906
						c-0.2724609,0.6376953-0.8427734,0.9970703-1.6914062,0.9970703c-1.2392578,0-1.9277344-0.7558594-1.9277344-2.0722656
						V5.2965994h1.1044922v3.3476562c0,0.9042969,0.3652344,1.3359375,1.1777344,1.3359375
						c0.8945312,0,1.3837891-0.5292969,1.3837891-1.4082031V5.2965994h1.1054688V10.8962088z"/>
					<path id="XMLID_31_" fill="#FFFFFF" d="M58.4976463,5.188201c1.2597656,0,2.0830078,0.5869141,2.1904297,1.5732422h-1.0585938
						C59.5259666,6.3503103,59.125576,6.087615,58.4976463,6.087615c-0.6171875,0-1.0849609,0.2939453-1.0849609,0.7304688
						c0,0.3339844,0.2832031,0.5449219,0.8896484,0.6835938l0.9306641,0.2167969
						c1.0644531,0.2460938,1.5634766,0.7041016,1.5634766,1.5273438c0,1.0537109-0.9824219,1.7578125-2.3193359,1.7578125
						c-1.3320312,0-2.2011719-0.6015625-2.2988281-1.59375h1.1054688c0.1396484,0.4316406,0.5507812,0.6992188,1.21875,0.6992188
						c0.6894531,0,1.1777344-0.3085938,1.1777344-0.7558594c0-0.3339844-0.2617188-0.5498047-0.8222656-0.6835938
						l-0.9775391-0.2265625c-1.0644531-0.2519531-1.5576172-0.7304688-1.5576172-1.5625
						C56.3228416,5.8883963,57.2329979,5.188201,58.4976463,5.188201z"/>
					<path id="XMLID_36_" fill="#FFFFFF" d="M62.1353416,3.6403496c0-0.3847656,0.3037109-0.6787109,0.7148438-0.6787109
						s0.7148438,0.2939453,0.7148438,0.6787109c0,0.3808591-0.3037109,0.6738279-0.7148438,0.6738279
						S62.1353416,4.0212088,62.1353416,3.6403496z M62.3003807,5.2965994h1.0996094v5.5996094h-1.0996094V5.2965994z"/>
					<path id="XMLID_39_" fill="#FFFFFF" d="M68.8472519,7.1266775c-0.1289062-0.5449219-0.5810547-0.9511719-1.3212891-0.9511719
						c-0.9257812,0-1.4912109,0.7099609-1.4912109,1.9023438c0,1.2138672,0.5703125,1.9394531,1.4912109,1.9394531
						c0.6992188,0,1.1767502-0.3193359,1.3212891-0.9208984h1.0742188c-0.1435547,1.1259766-1.0078125,1.9072266-2.390625,1.9072266
						c-1.6298828,0-2.6279297-1.0996094-2.6279297-2.9257812c0-1.7949219,0.9921875-2.8896484,2.6230469-2.8896484
						c1.4033203,0,2.2519531,0.8173828,2.3955078,1.9384766H68.8472519z"/>
				</g>
			</g>
		</g>
	</g>
</g>
<g>
</g>
<g>
</g>
<g>
</g>
<g>
</g>
<g>
</g>
<g>
</g>
</svg>
